<svg width="134" height="40" viewBox="0 0 134 40" fill="none" xmlns="http://www.w3.org/2000/svg">
<path fill-rule="evenodd" clip-rule="evenodd" d="M8.54494 16.6998C7.43577 17.808 7.43577 19.6046 8.54494 20.7128C9.65411 21.8209 11.4524 21.8209 12.5616 20.7128L22.4537 10.8298L22.4537 10.8821C22.456 12.4484 23.7276 13.72 25.2939 13.7223C26.8602 13.7245 28.1281 12.4566 28.1259 10.8903L28.1159 4.02779C28.1136 2.46147 26.842 1.18988 25.2757 1.1876C24.8507 1.18698 24.4477 1.27987 24.0861 1.44685C23.7711 1.58469 23.476 1.7824 23.2182 2.04L8.54494 16.6998Z" fill="#7B61FF"/>
<path fill-rule="evenodd" clip-rule="evenodd" d="M10.2789 29.1676C10.2766 27.6012 9.005 26.3296 7.43868 26.3274C5.87236 26.3251 4.60446 27.593 4.60674 29.1593L4.61673 36.0218C4.61902 37.5882 5.89062 38.8597 7.45693 38.862C7.88147 38.8626 8.28408 38.7699 8.64542 38.6033C8.96084 38.4654 9.25631 38.2676 9.51444 38.0097L24.1877 23.3498C25.2968 22.2417 25.2968 20.445 24.1877 19.3369C23.0785 18.2287 21.2802 18.2287 20.171 19.3369L10.279 29.2199L10.2789 29.1676Z" fill="#7B61FF"/>
<path d="M44.1739 30.2041C41.8246 30.2041 39.8954 29.6583 38.3865 28.5669C36.8775 27.4566 36.0658 25.8759 35.9512 23.8247H41.9392C41.9965 24.521 42.2066 25.0291 42.5695 25.349C42.9324 25.6689 43.4003 25.8289 43.9734 25.8289C44.4891 25.8289 44.9093 25.7066 45.234 25.4619C45.5778 25.1985 45.7497 24.8409 45.7497 24.3893C45.7497 23.8059 45.4727 23.3543 44.9188 23.0344C44.3649 22.7145 43.4672 22.3569 42.2257 21.9618C40.9077 21.5289 39.8381 21.1149 39.0168 20.7198C38.2146 20.3058 37.5079 19.713 36.8966 18.9415C36.3045 18.1511 36.0085 17.1255 36.0085 15.8647C36.0085 14.5851 36.3332 13.4936 36.9826 12.5904C37.632 11.6683 38.5297 10.972 39.6758 10.5016C40.8218 10.0311 42.1206 9.7959 43.5722 9.7959C45.9216 9.7959 47.7934 10.3416 49.1878 11.4331C50.6012 12.5057 51.3557 14.0205 51.4512 15.9776H45.3486C45.3295 15.3754 45.1385 14.9238 44.7756 14.6227C44.4318 14.3216 43.9829 14.1711 43.429 14.1711C43.0088 14.1711 42.665 14.2934 42.3976 14.538C42.1302 14.7827 41.9965 15.1308 41.9965 15.5824C41.9965 15.9588 42.1397 16.2881 42.4262 16.5704C42.7318 16.8338 43.1043 17.0691 43.5436 17.2761C43.9829 17.4643 44.6323 17.7089 45.4918 18.01C46.7716 18.4428 47.8221 18.8756 48.6434 19.3084C49.4838 19.7224 50.2001 20.3152 50.7922 21.0867C51.4034 21.8394 51.709 22.7992 51.709 23.9659C51.709 25.1514 51.4034 26.2146 50.7922 27.1555C50.2001 28.0964 49.331 28.8398 48.185 29.3855C47.0581 29.9312 45.721 30.2041 44.1739 30.2041Z" fill="black"/>
<path d="M68.0965 30.2041C66.2055 30.2041 64.4674 29.7712 62.8821 28.9056C61.2967 28.0212 60.0361 26.8074 59.1002 25.2643C58.1833 23.7024 57.7249 21.9429 57.7249 19.9859C57.7249 18.0288 58.1833 16.2787 59.1002 14.7356C60.0361 13.1737 61.2967 11.96 62.8821 11.0943C64.4674 10.2287 66.2055 9.7959 68.0965 9.7959C70.0065 9.7959 71.7447 10.2287 73.3109 11.0943C74.8962 11.96 76.1473 13.1737 77.0641 14.7356C77.9809 16.2787 78.4394 18.0288 78.4394 19.9859C78.4394 21.9429 77.9809 23.7024 77.0641 25.2643C76.1473 26.8074 74.8962 28.0212 73.3109 28.9056C71.7256 29.7712 69.9874 30.2041 68.0965 30.2041ZM68.0965 25.0667C69.529 25.0667 70.6559 24.6057 71.4773 23.6836C72.3177 22.7615 72.7379 21.5289 72.7379 19.9859C72.7379 18.4052 72.3177 17.1632 71.4773 16.2599C70.6559 15.3378 69.529 14.8768 68.0965 14.8768C66.6448 14.8768 65.5084 15.3378 64.687 16.2599C63.8657 17.1632 63.4551 18.4052 63.4551 19.9859C63.4551 21.5478 63.8657 22.7898 64.687 23.7118C65.5084 24.6151 66.6448 25.0667 68.0965 25.0667Z" fill="black"/>
<path d="M90.6722 25.7724H96.9467V30.0065H85.0567V10.1064H90.6722V25.7724Z" fill="black"/>
<path d="M111.217 10.1064C113.337 10.1064 115.19 10.5298 116.775 11.3766C118.379 12.2046 119.611 13.3713 120.471 14.8768C121.33 16.3822 121.76 18.1041 121.76 20.0423C121.76 21.9618 121.321 23.6742 120.442 25.1796C119.583 26.6851 118.351 27.8706 116.746 28.7363C115.161 29.5831 113.318 30.0065 111.217 30.0065H103.223V10.1064H111.217ZM110.787 25.1232C112.43 25.1232 113.719 24.681 114.655 23.7965C115.591 22.9121 116.059 21.6607 116.059 20.0423C116.059 18.4052 115.591 17.1443 114.655 16.2599C113.719 15.3566 112.43 14.905 110.787 14.905H108.839V25.1232H110.787Z" fill="black"/>
<path d="M134 10.1064V30.0065H128.384V10.1064H134Z" fill="black"/>
</svg>