<svg width="23" height="22" viewBox="0 0 23 22" fill="none" xmlns="http://www.w3.org/2000/svg">
<path d="M8.5076 19.7714V16.7047C8.50758 15.9246 9.17697 15.2908 10.0063 15.2856H13.0443C13.8776 15.2856 14.5532 15.9209 14.5532 16.7047V16.7047V19.7809C14.553 20.4432 15.115 20.9845 15.819 21H17.8443C19.8633 21 21.5 19.4607 21.5 17.5618V17.5618V8.83784C21.4892 8.09083 21.1163 7.38935 20.4873 6.93303L13.5608 1.6853C12.3473 0.771566 10.6223 0.771566 9.40886 1.6853L2.51266 6.94256C1.88132 7.39702 1.50778 8.09967 1.5 8.84736V17.5618C1.5 19.4607 3.13671 21 5.1557 21H7.18101C7.90248 21 8.48734 20.4499 8.48734 19.7714V19.7714" stroke="black" stroke-width="1.5" stroke-linecap="round" stroke-linejoin="round"/>
</svg>
