<svg width="623" height="647" viewBox="0 0 623 647" fill="none" xmlns="http://www.w3.org/2000/svg">
<path d="M410.67 493.384C405.001 491.378 399.193 489.785 393.291 488.623L392.577 491.242C392.497 491.551 392.309 491.82 392.047 492.001C391.784 492.183 391.466 492.262 391.149 492.228L367.785 489.507C361.357 474.849 349.555 452.64 349.385 452.3C349.555 446.757 349.385 442.097 349.385 436.792C362.751 441.757 387.476 451.178 400.399 457.198C400.692 457.385 400.918 457.663 401.046 457.985C401.174 458.309 401.198 458.663 401.114 459C401.114 459 400.876 459.85 400.569 461.075C406.895 461.075 425.839 460.156 430.396 464.476C431.105 465.462 431.453 466.664 431.382 467.877C431.654 472.57 429.308 509.029 425.567 519.742C423.628 525.353 419.547 524.741 416.758 519.368C413.53 511.276 411.458 502.768 410.602 494.098C410.602 493.656 410.704 493.69 410.67 493.384ZM414.582 462.945C410.432 462.605 409.14 462.673 400.229 462.401C398.631 468.455 395.332 480.903 393.631 487.262C399.632 488.192 405.555 489.566 411.351 491.378C413.157 481.996 414.237 472.491 414.582 462.945Z" fill="white"/>
<path d="M97.6446 165.291C96.7943 164.101 97.8827 162.57 98.8009 161.38C96.1989 158.705 93.3136 156.321 90.1964 154.272C84.9336 151.649 80.124 148.206 75.9463 144.069C74.2118 142.266 70.9469 138.559 72.1712 136.383C73.3956 134.206 75.5722 134.07 78.5311 135.328C77.2498 133.983 76.2011 132.43 75.4362 130.737C74.4839 128.084 76.7285 125.942 81.5919 127.914C79.8234 125.091 79.4153 122.133 82.4082 120.704C84.8229 119.548 88.3599 122.303 90.4005 124.105C94.4081 127.606 98.1689 131.379 101.658 135.396C103.8 130.907 107.201 125.738 111.453 127.37C115.704 129.003 112.405 136.315 110.228 140.294L117.948 145.633C119.116 145.003 120.434 144.71 121.758 144.783C130.532 146.28 170.834 176.956 174.915 176.956C178.044 176.956 222.733 155.53 261.368 149.34C261.441 149.109 261.581 148.903 261.767 148.747C261.955 148.59 262.181 148.49 262.422 148.456C269.162 147.306 275.992 146.794 282.828 146.926C283.035 146.94 283.236 146.999 283.417 147.098C283.602 147.198 283.757 147.337 283.882 147.504H286.739C287.419 144.749 289.936 138.389 290.82 135.941C288.508 133.934 285.311 132.914 283.644 129.683C280.583 123.697 280.72 113.29 281.57 106.624C277.727 103.699 277.625 99.0059 278.509 94.2105C278.849 92.272 279.903 87.8847 281.536 86.7964C282.454 86.1842 284.393 86.7964 286.059 87.4086C287.726 83.5314 287.726 85.3 287.045 83.7355C286.727 83.0145 286.544 82.2428 286.501 81.4568C284.699 82.001 280.958 78.3959 282.25 73.6346C282.927 71.9304 283.758 70.2911 284.733 68.7372C284.257 67.5808 283.236 66.1864 286.433 61.9352C287.81 60.4499 289.599 59.408 291.569 58.9423H293.133C294.261 57.3043 295.919 56.1034 297.826 55.5413C300.706 54.8067 303.761 55.2346 306.329 56.7317C307.009 57.2418 307.553 57.922 308.233 58.3982C309.773 57.4644 311.535 56.971 313.335 56.971C315.134 56.971 316.897 57.4644 318.436 58.3982C319.337 58.7513 320.157 59.283 320.846 59.9608C321.534 60.6391 322.081 61.4492 322.45 62.3433C324.116 61.7682 325.885 61.5469 327.641 61.6934C329.396 61.84 331.105 62.3507 332.653 63.1936C338.528 66.3794 342.923 71.7387 344.896 78.1239C344.95 79.0867 344.95 80.0519 344.896 81.0147H345.27C350.372 80.2665 356.868 92.374 351.664 101.795C351.052 102.917 350.27 103.971 349.521 105.196C347.345 108.597 348.195 109.617 343.332 113.766C341.903 114.991 341.665 114.888 340.781 115.637C339.897 116.385 340.237 116.011 339.727 117.915C339.449 119.037 338.95 120.093 338.261 121.021C337.572 121.95 336.705 122.732 335.713 123.323C335.35 126.65 333.933 129.772 331.666 132.233C330.949 133.037 330.11 133.725 329.184 134.274C328.934 134.415 328.654 134.497 328.367 134.512C327.347 140.838 326.089 149.068 325.544 152.571L328.571 154.204C332.531 155.797 336.382 157.649 340.101 159.747C340.393 159.95 340.599 160.252 340.679 160.598C344.284 162.502 347.685 164.305 349.623 165.461C376.627 181.48 453.319 287.08 454.102 291.91C454.188 292.187 454.188 292.482 454.102 292.76C453.002 294.514 451.663 296.105 450.122 297.487C450.597 298.355 451.167 299.162 451.823 299.902C458.625 304.357 468.827 310.989 474.303 316.907C474.687 317.25 474.976 317.687 475.139 318.174C475.303 318.661 475.337 319.183 475.237 319.687C475.138 320.192 474.908 320.662 474.571 321.054C474.234 321.442 473.802 321.736 473.317 321.906C472.297 322.246 472.126 322.144 465.494 318.505C467.317 320.104 468.808 322.045 469.882 324.219C470.324 326.09 468.623 327.178 466.481 326.838C465.275 326.521 464.128 326.016 463.08 325.341C463.694 326.288 464.019 327.394 464.019 328.522C464.019 329.649 463.694 330.754 463.08 331.701C459.679 335.986 450.768 322.484 446.075 319.152C444.17 321.566 441.586 327.212 437.471 325.715C433.9 324.389 437.811 316.533 437.471 314.254C436.087 312.925 434.609 311.698 433.049 310.581C430.426 312.525 427.426 313.905 424.241 314.628C418.629 314.628 360.064 255.519 355.609 250.792C357.208 265.824 365.268 330.341 363.567 342.89C362.785 348.57 349.147 349.386 343.4 349.692C345.134 390.504 346.29 452.334 346.597 452.98C355.609 472.4 358.058 477.705 361.085 483.589C366.594 494.132 389.789 533.039 392.408 541.882C392.782 543.276 392.816 543.82 391.353 546.405C395.736 551.014 399.803 555.911 403.528 561.063C405.399 564.464 397.373 596.162 391.694 607.385C390.401 609.901 388.293 613.779 385.47 613.68C376.967 613.371 377.001 582.83 377.239 574.293C377.241 574.03 377.337 573.778 377.511 573.579C375.97 571.278 374.289 569.076 372.478 566.981C371.397 567.727 370.259 568.384 369.077 568.954C367.921 569.464 366.628 568.58 365.676 567.797C354.351 558.887 293.269 482.773 280.175 446.858C274.224 430.466 266.299 407.815 264.055 391.762C262.683 381.613 262.555 371.334 263.681 361.154C263.681 361.009 263.624 360.87 263.522 360.768C263.42 360.666 263.281 360.609 263.136 360.609C262.992 360.609 262.853 360.666 262.751 360.768C262.649 360.87 262.592 361.009 262.592 361.154C260.889 371.391 260.557 381.812 261.606 392.137C264.123 414.413 281.706 460.836 291.092 477.909C282.998 476.413 266.537 473.148 258.579 470.767C232.051 462.707 207.564 438.662 205.422 411.658C204.727 398.936 204.727 386.188 205.422 373.465C205.651 355.902 207.933 338.426 212.224 321.396C205.014 317.485 198.416 312.894 196.273 308.676C191.682 299.664 203.823 247.799 206.476 233.243C191.954 234.841 167.229 237.732 155.699 228.719C142.504 218.108 114.003 188.248 97.6446 165.291ZM379.076 572.423C385.198 568.716 393.768 559.907 395.061 553.003C393.666 551.235 392.204 549.602 390.843 547.766C386.234 554.8 380.487 561.018 373.838 566.165C375.706 568.146 377.455 570.235 379.076 572.423ZM108.698 141.246C108.522 141.134 108.394 140.959 108.346 140.756C108.295 140.554 108.324 140.34 108.426 140.158C109.616 137.947 113.187 130.159 110.704 129.275C109.276 128.73 108.018 129.615 106.963 130.805C105.353 132.848 104.101 135.147 103.256 137.607C103.194 137.807 103.078 137.986 102.919 138.125C102.763 138.264 102.57 138.358 102.366 138.397C102.159 138.435 101.947 138.416 101.748 138.344C101.553 138.271 101.38 138.145 101.25 137.981C97.8486 134.206 89.8904 125.602 85.4011 123.289C82.0001 121.52 81.1838 124.785 89.5162 132.404C91.4294 133.863 93.2684 135.418 95.0258 137.063C95.1223 137.196 95.1761 137.357 95.1761 137.522C95.1761 137.687 95.1223 137.848 95.0258 137.981C95.0258 138.865 94.3116 139.852 93.0872 138.933C90.1309 136.338 87.0051 133.941 83.7346 131.757C82.065 130.571 80.124 129.823 78.0889 129.581C79.1092 132.71 88.598 141.212 89.4142 142.164C89.672 142.397 89.831 142.721 89.8533 143.068C89.873 143.415 89.7599 143.757 89.5329 144.019C89.3035 144.282 88.9832 144.446 88.6375 144.474C88.2888 144.502 87.9462 144.394 87.6797 144.171C83.9046 141.722 77.3067 136.009 75.028 136.859C72.7494 137.709 79.5173 144.035 81.2178 145.531C90.9786 154 88.4619 148.558 99.7532 160.054C104.667 154.669 110.31 149.999 116.52 146.178L108.698 141.246ZM256.47 303.915C257.049 299.222 257.763 294.154 258.647 288.883L257.185 286.944C250.383 278.204 248.342 264.294 248.988 253.377C245.349 269.327 242.458 285.006 240.248 300.582L256.47 303.915ZM307.043 187.465C315.988 180.663 330.374 168.93 338.74 160.904L325.136 154.102C312.643 165.77 301.95 179.226 293.405 194.029C280.337 218.035 270.644 243.728 264.599 270.381L313.097 201.784L306.771 188.656C306.686 188.454 306.669 188.23 306.717 188.018C306.765 187.804 306.879 187.611 307.043 187.465ZM284.052 148.898C283.848 149.272 281.502 154.272 277.931 163.012C277.931 163.387 278.577 171.889 278.883 174.882C283.224 173.162 287.317 170.874 291.059 168.08C290.31 165.121 286.943 151.687 286.705 148.66L284.052 148.898ZM296.126 185.425C295.888 184.813 295.65 183.996 295.378 183.044L293.099 184.235C291.807 185.085 292.317 182.5 291.161 189.982C291.161 191.241 290.82 192.635 290.752 194.165C292.317 191.343 294.255 188.316 296.092 185.425H296.126ZM298.031 182.568C304.455 173.455 311.77 165.002 319.865 157.333L294.255 168.454C295.242 170.801 296.67 177.977 297.996 182.568H298.031ZM271.877 202.498C275.278 193.213 277.897 182.84 279.189 180.119C279.112 179.271 279.112 178.417 279.189 177.569C278.696 177.752 278.183 177.866 277.659 177.909C277.33 177.912 277.012 177.797 276.763 177.585C276.511 177.373 276.346 177.077 276.298 176.752C276.026 175.63 275.584 169.95 275.516 168.692C265.622 193.671 257.363 219.266 250.791 245.316C270.006 204.436 267.048 216.272 271.843 202.498H271.877ZM243.751 267.423C251.505 230.25 265.143 183.894 280.651 149.545C274.955 149.548 269.269 150.003 263.647 150.905C260.756 176.752 263.17 175.868 261.232 176.888C259.293 177.909 247.628 182.602 245.893 183.316C246.063 185.935 243.615 260.825 243.717 267.423H243.751ZM282.896 88.973C281.122 92.8421 280.498 97.1385 281.094 101.353C281.371 102.425 281.938 103.4 282.737 104.168C283.537 104.937 284.531 105.468 285.614 105.705C286.693 105.941 287.822 105.872 288.868 105.506C289.913 105.14 290.835 104.491 291.535 103.631C293.158 100.213 294.377 96.6178 295.174 92.9181C294.255 91.7278 284.461 89.3471 282.896 88.973ZM329.694 122.983C330.935 122.417 332.207 121.918 333.503 121.486C334.373 121.129 335.146 120.577 335.77 119.874C336.394 119.17 336.847 118.333 337.096 117.427C337.346 116.521 337.385 115.57 337.21 114.646C337.034 113.723 336.651 112.852 336.088 112.1C333.945 110.297 332.006 110.399 330.238 113.086C329.115 115.161 329.15 115.331 328.639 115.535C328.492 115.599 328.333 115.632 328.174 115.63C328.015 115.628 327.857 115.592 327.712 115.525C327.568 115.457 327.437 115.359 327.335 115.238C327.231 115.117 327.154 114.974 327.109 114.82C326.604 112.692 326.525 110.485 326.871 108.325C327.279 105.978 327.347 95.5709 327.279 95.2308C326.284 95.7546 325.17 96.0013 324.048 95.945C317.892 95.707 316.668 92.544 314.219 89.9593C311.396 90.2314 310.818 91.5918 307.621 89.9593C306.125 89.1078 304.75 88.0554 303.54 86.8304C302.562 87.2305 301.618 87.7085 300.717 88.2588C298.679 89.2389 296.381 89.54 294.159 89.1177C291.937 88.6954 289.908 87.5718 288.372 85.9121C287.998 86.6263 287.658 87.3405 287.351 88.0887C290.477 89.059 293.419 90.5412 296.058 92.476C296.636 93.1902 295.786 97.0673 295.582 97.9856C298.43 98.3443 301.188 99.2322 303.71 100.604C304.22 98.8359 305.343 95.5369 307.111 94.6186C307.644 94.456 308.211 94.456 308.744 94.6186C311.804 95.0948 322.79 98.3937 324.116 100.196C325.272 101.455 321.973 111.181 320.953 112.78C317.042 118.834 305.581 117.065 303.438 109.991C302.908 107.617 302.908 105.155 303.438 102.781C302.452 102.781 299.493 101.727 299.153 101.625C296.806 106.896 296.126 107.202 293.405 112.882C293.779 113.188 294.391 113.698 294.902 114.038C297.316 115.637 297.826 115.365 297.69 116.045C297.651 116.18 297.563 116.296 297.444 116.371C297.325 116.446 297.183 116.475 297.044 116.453C295.616 116.249 294.221 115.861 292.895 115.297C292.101 115 291.447 114.418 291.059 113.664C290.106 111.522 295.378 103.461 297.452 101.046C297.044 101.046 296.092 100.366 295.378 99.9922C294.425 103.801 293.779 106.794 290.106 108.291C289.043 108.691 287.912 108.874 286.779 108.827C285.645 108.78 284.534 108.505 283.508 108.019C282.964 114.004 283.066 123.731 285.923 129.037C287.385 131.791 290.99 132.846 293.303 135.124C293.983 135.771 293.541 136.689 293.303 137.675C289.528 148.184 289.46 148.15 289.664 149.51C290.665 155.157 292.061 160.726 293.847 166.175C294.698 165.801 304.254 160.734 322.96 153.456C323.538 149.613 326.633 129.105 327.619 125.33C327.551 124.003 327.721 123.697 329.694 122.813V122.983ZM305.887 109.107C306.975 112.814 312.111 114.412 315.784 113.392C319.457 112.372 319.695 110.501 321.429 106.08C322.242 104.391 322.804 102.592 323.096 100.74C321.973 99.5161 309.696 96.9993 308.165 96.7613C306.02 100.434 305.212 104.737 305.887 108.937V109.107ZM438.967 313.302C440.259 314.56 438.525 318.675 438.253 322.246C438.253 322.552 438.253 323.879 438.457 323.981C440.328 324.593 442.062 321.77 443.116 320.07C444.171 318.369 445.225 316.057 446.892 316.669C450.293 318.267 458.183 328.742 461.278 329.831C462.842 326.838 453.897 318.301 453.591 317.825C453.46 317.607 453.391 317.355 453.392 317.102C453.394 316.848 453.465 316.595 453.598 316.38C453.731 316.162 453.922 315.986 454.148 315.867C454.375 315.751 454.629 315.7 454.883 315.717C455.495 315.717 455.904 316.261 456.856 317.111C459.753 319.937 463.068 322.3 466.685 324.117C463.405 320.354 459.896 316.799 456.176 313.472C455.992 313.282 455.863 313.047 455.801 312.792C455.801 312.792 456.516 310.989 457.91 311.703C459.883 312.792 469.474 318.335 472.5 319.764C472.908 319.492 472.67 319.083 472.5 318.675C467.706 312.792 457.162 305.65 450.701 301.126C449.942 300.344 449.311 299.451 448.83 298.474C444.354 302.637 439.581 306.469 434.546 309.935C436.097 310.953 437.574 312.077 438.967 313.302ZM359.826 344.217C360.575 343.741 361.119 343.298 361.221 342.686C363.091 328.81 352.684 250.18 352.854 247.085C352.854 246.903 352.891 246.724 352.962 246.556C353.03 246.389 353.135 246.238 353.265 246.111C353.395 245.984 353.549 245.884 353.719 245.818C353.886 245.751 354.067 245.72 354.249 245.724C355.983 245.724 352.922 245.724 396.25 287.216C399.107 289.903 420.942 310.785 424.581 312.179C429.581 311.805 448.388 296.807 451.449 292.08C445.531 280.108 373.77 181.616 348.943 166.549C347.039 165.393 343.774 163.591 340.203 161.686C338.967 162.851 337.638 163.908 336.224 164.849C328.333 172.331 317.348 181.65 309.016 188.656L315.512 201.546C315.611 201.716 315.662 201.91 315.662 202.107C315.662 202.304 315.611 202.497 315.512 202.668C262.762 278.34 263.545 277.489 263.204 277.489C259.823 294.976 257.72 312.684 256.913 330.477C256.913 335.272 256.913 334.864 256.709 334.524C256.505 334.184 256.709 334.762 256.709 334.762C264.939 343.741 346.392 352.107 359.826 344.217ZM171.82 231.542C187.226 233.685 204.64 230.488 208.007 230.352C209.877 221.285 213.606 212.705 218.958 205.151C219.04 205.041 219.159 204.965 219.295 204.94C219.428 204.915 219.567 204.942 219.683 205.015C219.799 205.088 219.885 205.202 219.921 205.334C219.955 205.467 219.941 205.608 219.876 205.729C217.903 209.742 211.305 227.053 209.673 231.27C210.183 232.903 194.301 298.576 198.79 307.418C202.803 315.41 226.168 325.477 234.602 328.368C236.269 309.433 238.995 290.609 242.765 271.98C241.608 262.185 243.105 203.96 243.547 182.432C243.561 182.182 243.643 181.94 243.787 181.736C243.932 181.531 244.131 181.372 244.363 181.276L259.633 174.848C259.701 166.766 260.214 158.693 261.164 150.667C223.039 157.265 178.622 179.065 174.915 179.099C169.541 179.099 129.614 148.49 121.349 147.266C117.676 146.688 101.896 160.462 100.059 164.271C116.18 186.785 144.51 216.374 157.638 226.611C161.866 229.439 166.749 231.136 171.82 231.542Z" fill="white"/>
<path d="M309.39 102.305C309.432 102.082 309.517 101.869 309.642 101.679C309.767 101.489 309.928 101.325 310.115 101.197C310.305 101.069 310.515 100.98 310.739 100.933C310.96 100.887 311.189 100.885 311.414 100.928C311.637 100.97 311.85 101.056 312.039 101.181C312.23 101.306 312.394 101.466 312.522 101.654C312.649 101.842 312.74 102.053 312.785 102.276C312.83 102.499 312.833 102.728 312.791 102.951C312.111 106.352 311.975 107.134 310.478 107.134C310.195 107.135 309.917 107.066 309.667 106.932C309.418 106.798 309.206 106.604 309.053 106.368C308.897 106.131 308.803 105.86 308.778 105.578C308.755 105.296 308.8 105.013 308.914 104.754C309.016 104.21 309.322 102.611 309.39 102.305ZM298.983 124.819C296.772 125.466 294.663 124.411 294.732 123.867C294.8 123.323 294.732 123.595 297.724 122.473C299.731 121.725 301.942 119.072 302.724 119.48C303.506 119.888 302.316 122.065 302.044 122.473C301.315 123.577 300.238 124.403 298.983 124.819ZM236.779 92.5101C241.234 111.182 244.499 127.03 245.043 130.193C245.406 131.569 245.474 133.006 245.247 134.41C243.445 138.253 220.148 145.838 217.189 144.341C214.23 142.845 206.544 125.534 197.599 107.679C192.121 107.854 186.637 107.455 181.241 106.488C175.558 105.446 170.029 103.698 164.78 101.285C153.285 95.9791 140.701 73.2606 139 61.8333C137.725 49.4265 140.352 36.9313 146.517 26.089C175.051 -23.3953 258.749 3.23435 251.947 58.1942C250.005 70.7698 244.771 82.609 236.779 92.5101ZM216.033 133.016C216.033 133.56 216.645 133.492 219.434 133.016C225.139 132.299 230.663 130.535 235.724 127.812C238.105 126.52 238.751 126.248 238.513 125.67C238.275 125.092 237.765 125.296 234.092 126.316C233.752 126.316 223.209 129.717 220.182 130.771C216.271 132.54 216.033 132.54 216.033 133.016ZM216.645 77.6819C213.015 77.8698 209.395 77.121 206.136 75.5052C203.109 76.972 199.833 77.8606 196.477 78.124C202.191 88.7691 213.788 110.467 217.529 122.031L231.949 118.052C228.548 109.685 221.032 90.0954 216.713 77.6819H216.645ZM217.835 74.859C220.375 74.4757 222.719 73.2699 224.504 71.4271C226.293 69.5838 227.426 67.2056 227.732 64.6561C228.684 57.8541 224.331 50.2359 217.767 52.0385C213.652 53.1608 213.142 56.4257 213.856 60.5409C214.468 63.5338 216.679 71.0499 217.903 74.723L217.835 74.859ZM208.585 66.6967C208.222 64.4712 207.386 62.349 206.136 60.4729C205.541 59.4501 204.67 58.6147 203.625 58.0619C202.579 57.5085 201.4 57.2599 200.218 57.344C197.701 58.0922 196.613 62.8536 198.688 65.8464C200.683 68.4924 203.163 70.7321 206 72.4443C206.977 71.8717 207.754 71.0141 208.228 69.9864C208.701 68.9593 208.851 67.811 208.653 66.6967H208.585ZM239.84 23.4703C224.603 5.1389 195.933 -2.1392 175.221 5.41098C163.969 9.27332 154.506 17.0937 148.591 27.4154C142.727 37.7326 140.219 49.6182 141.415 61.4252C142.98 72.0022 155.019 93.9726 165.596 98.836C175.266 103.247 185.818 105.388 196.443 105.094C197.599 105.094 198.824 105.094 199.266 105.91C201.272 109.991 204.946 117.881 208.551 125.296C211.042 124.094 213.621 123.092 216.271 122.303C212.326 111.011 199.878 88.8371 193.96 78.09C188.834 78.529 183.678 77.6392 178.996 75.5052C177.732 74.8393 176.683 73.8264 175.972 72.5847C175.264 71.3437 174.92 69.9258 174.988 68.4974C175.056 67.0696 175.533 65.6906 176.354 64.5219C177.179 63.3538 178.319 62.4442 179.642 61.9013C184.914 59.3166 189.641 65.5063 192.396 70.7098C193.144 72.0702 193.994 73.6687 194.947 75.4712C197.698 75.2907 200.411 74.7298 203.007 73.8047C200.422 71.9868 198.127 69.7854 196.205 67.2749C195.128 65.6486 194.584 63.7286 194.644 61.7795C194.705 59.8298 195.369 57.9475 196.545 56.3917C197.469 55.3189 198.753 54.6195 200.156 54.4253C201.559 54.2312 202.984 54.5558 204.163 55.3374C206.547 56.8011 208.454 58.9208 209.662 61.4425C210.866 63.9642 211.32 66.7808 210.965 69.5535C210.597 71.1186 209.752 72.5322 208.551 73.6007C210.781 74.5245 213.176 74.9877 215.591 74.9611C214.23 70.9479 212.02 63.7038 211.441 60.745C211.078 59.0581 210.999 57.323 211.203 55.6095C211.467 54.139 212.15 52.7755 213.17 51.6835C214.188 50.5909 215.503 49.8173 216.951 49.4537C225.215 47.107 231.303 56.2557 230.113 64.7921C229.778 67.8512 228.464 70.7204 226.369 72.9749C224.274 75.2294 221.508 76.7488 218.482 77.3078C222.835 89.5513 229.637 109.311 233.038 117.745L240.52 115.807C235.724 91.7279 235.146 92.3061 235.827 92C243.555 82.1477 248.498 70.4031 250.145 57.9902C250.947 51.835 250.442 45.5803 248.668 39.6331C246.894 33.6854 243.884 28.1783 239.84 23.4703ZM192.634 75.6753C190.253 71.356 185.492 61.9013 180.867 64.214C179.943 64.5868 179.135 65.2052 178.537 66.0023C177.936 66.7993 177.568 67.7448 177.466 68.7373C177.534 74.723 186.852 75.7773 192.77 75.6753H192.634ZM62.4444 90.6736C58.3465 88.2633 53.5053 87.4402 48.8404 88.3609C43.7161 88.4525 38.8218 90.5011 35.1599 94.087C31.4954 97.6728 29.3497 102.523 29.1518 107.645C32.2313 105.857 35.8344 105.184 39.3517 105.74C47.8881 106.488 59.0434 111.114 57.5469 119.344C56.3226 126.146 47.344 125.228 40.5421 123.391C33.7401 121.555 28.3356 118.222 26.9381 111.658C18.6768 117.677 16.7352 128.22 16.3951 138.525C16.3951 138.67 16.3394 138.808 16.2343 138.91C16.1354 139.012 15.9931 139.07 15.8509 139.07C15.7087 139.07 15.5665 139.012 15.4675 138.91C15.3624 138.808 15.3068 138.67 15.3068 138.525C15.0718 126.996 17.1432 115.705 26.5671 109.141C26.4681 106.188 26.9752 103.247 28.045 100.494C29.1147 97.7415 30.741 95.2353 32.8063 93.1267C34.8766 91.0187 37.3538 89.3528 40.0857 88.2292C42.8176 87.1063 45.7511 86.5492 48.7044 86.5924C53.4262 85.903 58.2383 86.8899 62.3083 89.3812C63.5667 89.9934 62.9885 90.9117 62.4444 90.6736ZM31.4274 115.059C35.2705 120.092 46.1536 122.711 51.1871 121.861C53.0576 121.555 54.5881 120.772 54.9962 118.834C56.2206 112.032 44.4872 108.325 37.4811 108.087C34.6299 107.868 31.7861 108.597 29.3868 110.161C29.6465 111.94 30.3453 113.624 31.4274 115.059ZM78.0209 50.9161C74.3818 46.4268 76.8305 38.6046 86.9995 38.5706C90.9446 38.5706 92.8492 42.5838 92.5771 46.4268C91.9649 55.5755 81.6599 55.3034 78.0209 50.9161ZM90.1964 46.2568C90.1964 44.0122 89.1421 41.0873 86.7954 41.1214C81.3198 41.1214 78.8031 43.6721 78.8031 46.4948C78.9391 52.9227 90.6385 56.2557 90.1964 46.2568ZM91.5908 431.826C121.485 419.889 135.361 477.671 159.78 527.326C159.936 529.411 159.866 531.512 159.576 533.584C159.576 538.787 158.998 573.239 155.971 577.15C155.155 578.715 151.72 577.15 150.122 576.164C136.546 567.761 123.753 558.153 111.895 547.46C111.793 547.343 111.719 547.21 111.671 547.063C111.626 546.915 111.608 546.763 111.623 546.609C105.297 537.597 81.5919 490.663 75.8442 467.128C71.8311 450.464 75.8102 438.05 91.5908 431.826ZM80.9117 475.019C96.9161 472.967 112.391 467.914 126.519 460.122C118.561 445.056 108.732 427.881 92.509 434.343C74.4498 441.519 74.8239 456.381 80.9117 474.917V475.019ZM137.504 563.444C138.55 562.569 139.689 561.815 140.905 561.2C145.502 558.864 150.811 558.351 155.767 559.771C156.107 555.724 158.046 529.4 158.046 529.162C132.573 538.481 140.429 534.434 115.194 546.983C117.846 549.5 127.811 556.472 137.504 563.376V563.444ZM119.955 465.02C116.639 466.831 113.232 468.478 109.752 469.951C117.549 482.195 124.436 494.997 130.362 508.246C136.076 520.184 135.872 520.116 141.687 533.141C145.088 532.053 148.489 531.033 151.89 530.013C148.217 522.7 122.098 469.237 119.955 464.952V465.02ZM140.361 533.482C129.308 513.654 118.05 488.997 108.392 470.393C104.991 471.822 101.59 472.978 98.1887 473.998C99.9912 477.399 105.263 486.446 106.657 489.065C108.052 491.683 122.03 519.231 123.016 521.34C124.58 524.741 128.866 534.23 130.192 537.257C133.661 535.726 136.994 534.57 140.497 533.414L140.361 533.482ZM128.968 537.699C126.893 533.924 118.357 518.075 117.302 516.035C115.704 512.872 97.8826 476.447 96.8964 474.338C93.7675 475.223 90.4685 475.971 88.3599 476.379C94.5837 493.384 112.507 526.135 118.969 542.29C124.852 539.535 126.179 538.855 129.104 537.631L128.968 537.699ZM126.893 461.109L120.805 464.51C133.074 485.403 143.759 507.183 152.774 529.672L157.876 528.108C138.116 486.004 137.198 480.494 127.029 461.041L126.893 461.109ZM112.881 545.249L118.016 542.8C112.473 531.917 95.1278 503.995 87.2035 476.617C85.299 476.957 83.4284 477.263 81.6259 477.501C90.3664 500.821 100.859 523.446 113.017 545.181L112.881 545.249ZM219.434 567.321C218.079 566.199 217.11 564.68 216.665 562.977C216.22 561.273 216.319 559.474 216.951 557.833C217.24 555.463 218.326 553.261 220.032 551.592C221.738 549.923 223.963 548.883 226.338 548.648C228.713 548.409 231.099 548.987 233.1 550.286C235.104 551.583 236.606 553.528 237.357 555.792C241.71 552.969 246.438 549.976 250.961 547.12C247.56 542.596 237.561 544.603 236.541 548.31C236.518 548.455 236.439 548.585 236.322 548.67C236.204 548.755 236.056 548.792 235.912 548.769C235.767 548.746 235.64 548.667 235.551 548.551C235.467 548.432 235.43 548.285 235.452 548.14C235.963 542.222 248.274 538.753 253.24 545.725C257.627 543.038 263.068 539.773 267.626 537.291C263.715 533.89 254.974 535.794 254.022 539.331C253.977 539.453 253.891 539.553 253.778 539.618C253.667 539.68 253.534 539.702 253.41 539.677C253.282 539.652 253.168 539.584 253.087 539.482C253.007 539.383 252.964 539.255 252.967 539.127C253.41 533.618 264.803 529.911 269.972 535.964C272.138 534.751 274.417 533.748 276.774 532.971C277.205 532.793 277.678 532.742 278.138 532.827C278.597 532.912 279.022 533.127 279.359 533.448C287.964 544.161 316.974 571.981 330.374 575.212C330.711 575.263 331.029 575.401 331.295 575.614C331.561 575.827 331.765 576.105 331.89 576.422C332.015 576.74 332.055 577.085 332.003 577.42C331.949 577.757 331.811 578.074 331.598 578.341C328.657 581.328 325.287 583.861 321.599 585.857C325 589.258 327.653 592.319 329.626 594.529C330.646 595.618 331.19 616.432 330.306 621.026C330.175 621.471 329.883 621.861 329.49 622.114C325.204 625.039 270.006 648.914 264.361 645.717C260.586 643.571 215.523 596.672 214.808 595.243C213.72 592.999 214.094 578.034 214.162 572.049C214.434 570.246 217.801 568.308 219.434 567.321ZM328.265 612.251V604.664C314.151 611.466 281.842 625.342 269.598 629.219C266.469 630.24 266.197 630.104 264.565 629.219C255.212 623.234 222.189 586.027 216.135 580.347V587.523C234.5 605.926 265.687 638.167 266.265 636.33C269.632 636.126 325.34 613.612 328.265 612.251ZM220.284 555.86C219.063 557.92 218.405 560.267 218.379 562.662C218.391 563.424 218.578 564.173 218.927 564.853C219.275 565.531 219.774 566.12 220.386 566.573C223.243 564.669 228.65 561.132 235.044 556.982C231.541 550.078 223.753 549.976 220.42 555.86H220.284ZM329.115 577.626C314.627 573.341 287.113 546.813 277.863 535.318C275.638 535.939 273.49 536.818 271.469 537.937C274.87 544.263 271.231 551.201 269.938 550.214C269.224 549.67 270.517 549.466 270.721 546.133C270.808 543.699 270.256 541.284 269.122 539.127C264.429 541.576 258.919 544.773 254.26 547.46C257.117 553.819 253.682 560.111 252.491 559.193C251.301 558.275 253.035 558.479 253.24 555.146C253.322 552.961 252.905 550.784 252.015 548.786C247.22 551.609 242.322 554.534 237.833 557.288C238.524 558.983 238.8 560.82 238.635 562.642C238.468 564.465 237.867 566.222 236.881 567.763C236.836 567.82 236.782 567.871 236.716 567.908C236.654 567.942 236.583 567.968 236.512 567.976C236.439 567.985 236.365 567.982 236.294 567.962C236.223 567.942 236.158 567.911 236.099 567.865C236.042 567.82 235.991 567.767 235.957 567.701C235.92 567.639 235.895 567.568 235.886 567.495C235.878 567.423 235.88 567.35 235.9 567.279C235.92 567.208 235.951 567.14 235.997 567.083C236.609 565.732 236.909 564.26 236.881 562.778C236.852 561.296 236.492 559.839 235.827 558.513C227.902 563.342 221.508 567.389 219.536 568.716C219.91 569.056 255.382 600.617 267.456 610.007C275.38 607.929 316.974 587.285 329.115 577.626ZM327.823 596.57C312.417 603.372 277.421 619.152 269.36 620.686C267.966 620.958 267.422 621.057 264.769 618.948C253.444 609.871 216.611 571.334 216.271 571.743C216.254 571.845 216.254 571.947 216.271 572.049V578.851C223.855 584.938 266.027 629.219 266.707 627.111C270.108 627.111 325.374 604.565 328.197 603.304C328.265 601.875 327.959 598.066 327.823 596.57ZM265.891 643.435C269.292 645.377 321.089 624.322 328.027 620.037C328.288 617.866 328.412 615.69 328.401 613.507C313.505 620.853 270.176 639.15 266.197 638.983C260.382 638.674 219.264 592.387 216.339 589.156C216.305 590.893 216.478 592.628 216.849 594.325C217.427 595.447 263.647 642.18 265.891 643.435ZM547.664 451.722C547.426 455.361 547.256 458.524 547.256 461.483C547.256 461.934 547.076 462.367 546.758 462.684C546.439 463.005 546.007 463.183 545.555 463.183C545.104 463.183 544.672 463.005 544.353 462.684C544.034 462.367 543.855 461.934 543.855 461.483C543.855 458.32 544.025 455.191 544.263 451.484C544.294 451.033 544.504 450.614 544.845 450.316C545.187 450.018 545.631 449.871 546.083 449.903C546.533 449.934 546.953 450.143 547.25 450.483C547.547 450.827 547.695 451.271 547.664 451.722ZM29.4548 383.532C29.6774 383.546 29.8939 383.603 30.0979 383.7C30.2958 383.799 30.4751 383.935 30.6173 384.105C30.7657 384.272 30.8771 384.468 30.9451 384.677C31.0131 384.89 31.0378 385.114 31.0193 385.335C30.8152 388.464 30.6111 391.831 30.6111 395.096C30.6111 395.546 30.4318 395.98 30.1103 396.297C29.7949 396.617 29.3621 396.796 28.9106 396.796C28.4592 396.796 28.0264 396.617 27.7111 396.297C27.3895 395.98 27.2102 395.546 27.2102 395.096C27.2102 391.695 27.4142 388.294 27.6554 385.097C27.6678 384.876 27.7234 384.658 27.8224 384.459C27.9213 384.258 28.0573 384.08 28.2243 383.935C28.3912 383.788 28.5891 383.677 28.7994 383.609C29.0096 383.541 29.2322 383.512 29.4548 383.532ZM556.472 443.253C556.022 443.253 555.589 443.075 555.27 442.754C554.951 442.437 554.772 442.004 554.772 441.553C554.772 441.102 554.951 440.669 555.27 440.352C555.589 440.031 556.022 439.853 556.472 439.853C560.588 439.853 564.023 440.159 567.424 440.091C567.878 440.091 568.314 440.269 568.638 440.587C568.963 440.904 569.149 441.338 569.158 441.791C569.158 442.242 568.979 442.675 568.66 442.993C568.341 443.313 567.909 443.492 567.458 443.492C563.955 443.56 560.111 443.424 556.472 443.253ZM39.9979 373.465C44.0791 373.465 47.514 373.703 50.949 373.737C51.3998 373.737 51.8333 373.916 52.1505 374.236C52.4708 374.554 52.6495 374.987 52.6495 375.438C52.6495 375.889 52.4708 376.322 52.1505 376.639C51.8333 376.96 51.3998 377.138 50.949 377.138C47.276 377.138 43.4669 377.138 39.7938 376.866C39.343 376.838 38.9207 376.634 38.6208 376.297C38.3228 375.959 38.17 375.515 38.1954 375.064C38.2238 374.613 38.4279 374.191 38.7649 373.891C39.105 373.59 39.5471 373.437 39.9979 373.465ZM548.582 422.235C548.378 425.364 548.174 428.731 548.174 431.996C548.165 432.444 547.984 432.872 547.666 433.19C547.35 433.507 546.922 433.688 546.474 433.697C546.023 433.697 545.59 433.518 545.271 433.198C544.952 432.88 544.773 432.447 544.773 431.996C544.773 428.595 544.977 425.194 545.181 421.997C545.213 421.547 545.422 421.127 545.764 420.83C546.105 420.532 546.55 420.385 547.001 420.416C547.452 420.447 547.872 420.657 548.168 420.997C548.465 421.34 548.614 421.785 548.582 422.235ZM28.1315 365.609C28.1315 362.208 28.3356 358.807 28.5706 355.61C28.6015 355.159 28.8117 354.74 29.1518 354.443C29.4919 354.145 29.9372 353.997 30.3885 354.029C30.84 354.06 31.2604 354.27 31.5573 354.61C31.8541 354.953 32.0025 355.397 31.9716 355.848C31.7675 358.977 31.5634 362.344 31.5634 365.609C31.5634 366.06 31.3841 366.493 31.0626 366.811C30.7472 367.131 30.3143 367.31 29.8629 367.31C29.4115 367.31 28.9725 367.131 28.6509 366.814C28.3232 366.496 28.1377 366.062 28.1315 365.609ZM523.483 442.811C523.26 442.803 523.04 442.749 522.837 442.656C522.634 442.562 522.451 442.429 522.3 442.265C522.148 442.1 522.03 441.91 521.954 441.698C521.876 441.488 521.841 441.267 521.85 441.043C521.885 440.598 522.086 440.181 522.414 439.878C522.742 439.578 523.172 439.41 523.619 439.41C527.734 439.58 531.169 439.716 534.604 439.648C535.055 439.648 535.488 439.827 535.807 440.147C536.125 440.465 536.305 440.898 536.305 441.349C536.305 441.8 536.125 442.233 535.807 442.55C535.488 442.871 535.055 443.049 534.604 443.049C530.965 443.117 527.156 442.981 523.483 442.811ZM7.0083 373.023C10.4093 373.193 14.1875 373.295 17.9595 373.295C18.1821 373.287 18.4047 373.324 18.6212 373.403C18.8314 373.483 19.0169 373.604 19.1838 373.757C19.3446 373.913 19.4745 374.1 19.5611 374.307C19.6476 374.514 19.6971 374.738 19.6971 374.962C19.6971 375.415 19.5178 375.852 19.1962 376.177C18.8809 376.501 18.448 376.688 17.9966 376.696C14.1194 376.696 10.9906 376.696 6.87231 376.424C6.64972 376.416 6.43323 376.362 6.22919 376.268C6.02515 376.175 5.83966 376.041 5.69122 375.878C5.53662 375.713 5.41913 375.523 5.34497 375.311C5.26459 375.101 5.23364 374.88 5.23987 374.656C5.28314 374.214 5.48718 373.803 5.81488 373.502C6.13641 373.199 6.56311 373.029 7.0083 373.023ZM601.638 342.04C601.196 342.38 505.288 328.164 501.172 325.648C500.944 325.481 500.762 325.259 500.644 325.004C500.525 324.749 500.472 324.466 500.492 324.185C500.492 319.798 506.24 278.612 508.995 268.341C509.335 267.083 509.675 265.824 510.457 265.382C515.661 262.253 607.351 279.53 612.827 283.067C612.975 283.155 613.104 283.274 613.203 283.413C613.303 283.555 613.371 283.713 613.405 283.883C614.561 287.999 604.597 340 601.638 342.04ZM611.33 284.7C604.801 281.741 521.578 266.504 512.056 267.695C509.743 273.647 503.553 317.247 503.145 323.641C507.872 325.035 600.345 340.918 600.685 340.986C601.025 341.054 601.059 341.462 601.774 339.319C604.767 330.341 611.5 292.386 611.33 284.7Z" fill="white"/>
<path d="M493.69 328.674C493.505 328.331 493.422 327.94 493.452 327.552C493.452 322.144 501.206 262.117 503.961 257.322C504.177 256.968 504.482 256.678 504.847 256.481C505.212 256.283 505.621 256.186 506.036 256.199C517.429 254.805 613.541 273.578 619.867 277.966C620.751 278.578 620.615 280.108 620.513 281.741C619.969 290.685 610.31 349.522 606.909 349.182C606.535 349.182 606.671 348.91 607.555 350.713C612.861 361.63 622.928 396.592 622.724 403.632C622.724 406.591 622.043 410.434 619.118 410.23C598.134 407.645 495.255 391.32 465.666 385.233C464.51 384.995 463.762 383.94 463.796 382.206C464.145 379.315 465.021 376.514 466.38 373.941C470.53 366.153 487.738 335.306 493.69 328.674ZM606.705 348.128C609.358 344.727 619.118 286.128 618.37 279.632C610.888 275.755 516.069 257.424 506.138 258.92C503.417 266.402 496.377 320.444 495.935 326.94C507.974 331.089 591.332 344.557 606.705 348.128ZM605.208 349.148C602.352 348.434 505.049 332.143 496.139 329.797C491.276 334.32 469.305 373.397 467.877 376.73C487.398 380.131 603.202 399.483 620.241 402.068C620.003 391.763 609.426 355.746 605.208 349.148Z" fill="white"/>
<path d="M592.419 384.416C589.46 383.974 526.678 376.424 503.993 370.268C503.854 370.232 503.734 370.141 503.66 370.019C503.587 369.894 503.566 369.744 503.602 369.605C503.638 369.466 503.728 369.344 503.853 369.273C503.977 369.2 504.126 369.177 504.265 369.214C508.721 370.132 563.068 377.376 592.487 383.362C592.568 383.348 592.652 383.351 592.731 383.373C592.81 383.396 592.884 383.436 592.945 383.492C593.007 383.546 593.055 383.614 593.087 383.691C593.118 383.768 593.132 383.849 593.126 383.931C593.121 384.014 593.097 384.096 593.056 384.167C593.015 384.238 592.958 384.3 592.89 384.345C592.822 384.393 592.744 384.425 592.663 384.436C592.581 384.448 592.498 384.442 592.419 384.416ZM546.54 147.776C547.81 150.645 548.878 153.6 549.736 156.618C549.787 157.103 549.654 157.589 549.362 157.979C545.927 163.148 510.727 202.838 501.545 208.415C500.286 209.198 498.79 209.742 497.871 208.62C491.201 200.319 482.495 193.887 472.602 189.948C464.55 187.099 456.107 185.505 447.571 185.221C440.769 184.609 439.579 183.928 436.96 179.473C433.871 173.61 429.772 168.337 424.852 163.897C418.579 158.412 411.616 153.77 404.14 150.089C403.804 149.898 403.541 149.6 403.393 149.243C403.245 148.885 403.221 148.489 403.324 148.116C404.474 145.191 405.994 142.425 407.847 139.886C406.623 139.478 405.263 139.103 405.263 137.879C405.263 134.478 434.919 91.5577 443.15 83.4633C444 82.6131 445.224 81.4908 446.347 81.5588C463.352 82.5111 479.914 98.5637 489.505 112.576C500.49 112.168 507.598 111.181 520.114 116.453C528.95 120.203 536.915 125.738 543.513 132.71C544.533 133.764 551.471 141.11 551.573 141.688C551.675 142.266 551.471 142.266 546.54 147.776ZM410.5 146.824C424.682 149.238 433.729 161.04 440.395 173.861C443.354 179.575 443.082 179.847 446.211 179.779C451.682 179.469 457.17 179.675 462.603 180.391C466.589 180.987 470.507 181.967 474.303 183.316C482.941 186.377 492.838 196.172 498.11 203.45C498.221 203.6 498.364 203.724 498.528 203.815C498.691 203.906 498.871 203.961 499.058 203.977C499.244 203.993 499.432 203.969 499.608 203.908C499.785 203.846 499.946 203.749 500.082 203.62C511.135 192.227 530.691 172.229 540.52 160.734C540.996 160.224 540.18 159.475 539.704 160.019C533.344 166.821 516.917 183.112 499.3 200.831C493.348 193.247 484.166 184.064 475.085 180.867C470.133 179.101 464.98 177.959 459.746 177.466C454.845 177.094 449.922 177.094 445.02 177.466C443.014 175.154 433.083 148.898 410.568 145.973C410.503 146.022 410.448 146.084 410.41 146.156C410.371 146.229 410.35 146.309 410.347 146.39C410.343 146.472 410.359 146.553 410.391 146.628C410.424 146.704 410.472 146.77 410.534 146.824H410.5ZM446.381 84.3136C439.579 89.075 411.895 130.057 408.29 137.233C414.545 139.215 420.584 141.824 426.315 145.021C431.742 147.742 436.493 151.638 440.223 156.427C443.954 161.217 446.568 166.778 447.877 172.705C460.087 152.843 477.125 130.975 488.451 114.888C487.771 114.446 468.657 85.64 446.381 84.3136ZM519.366 118.323C506.952 113.324 500.082 114.48 489.811 114.922C479.608 132.335 461.277 156.891 449.203 172.977C460.347 170.341 472.073 171.953 482.091 177.501C488.111 180.901 495.457 189.064 499.98 194.131C506.51 188.894 544.193 148.762 550.247 141.96C540.928 131.417 532.323 123.493 519.366 118.187V118.323ZM581.604 204.81C582.444 204.22 583.438 203.887 584.464 203.851C585.491 203.815 586.505 204.077 587.385 204.606C588.026 204.892 588.605 205.301 589.087 205.811C589.57 206.32 589.948 206.92 590.199 207.575C590.45 208.23 590.569 208.929 590.551 209.63C590.532 210.332 590.375 211.022 590.089 211.664C589.803 212.304 589.394 212.882 588.885 213.365C588.375 213.848 587.776 214.226 587.121 214.477C586.465 214.728 585.767 214.848 585.065 214.828C584.364 214.81 583.673 214.653 583.032 214.367C582.008 214.143 581.076 213.613 580.361 212.848C579.645 212.082 579.178 211.118 579.024 210.081C578.869 209.045 579.033 207.986 579.493 207.045C579.954 206.103 580.69 205.324 581.604 204.81ZM583.848 211.612C586.229 212.361 587.657 211.612 588.236 210.456C589.324 208.041 587.964 204.334 584.427 205.423C581.944 206.341 579.937 210.524 583.848 211.782V211.612ZM408.664 49.1814C407.677 51.188 403.086 50.4398 401.079 49.7936C400.025 49.4535 399.345 49.0794 399.243 48.0591C398.937 45.5084 398.597 23.4021 399.753 21.2594C399.872 21.0347 400.055 20.8504 400.28 20.7294C400.504 20.6084 400.758 20.556 401.011 20.5792C404.64 20.569 408.251 21.0965 411.725 22.1437C413.119 22.9939 409.888 46.9368 408.664 49.1814ZM411.01 22.9599C407.868 22.5104 404.691 22.3625 401.522 22.5178C401.318 25.0345 401.862 46.8348 401.896 47.1749C403.333 47.69 404.867 47.8761 406.385 47.719C406.623 46.9368 407.031 44.8282 407.541 42.1755C409.04 35.8369 410.198 29.4223 411.01 22.9599ZM584.903 176.106C584.576 176.274 584.215 176.36 583.848 176.36C583.482 176.36 583.121 176.274 582.794 176.106C581.48 175.295 580.438 174.111 579.801 172.705C579.715 172.48 579.688 172.236 579.724 171.998C579.76 171.76 579.856 171.535 580.005 171.345C581.638 169.406 599.459 148.762 601.635 150.055C604.308 151.785 606.844 153.718 609.22 155.836C609.315 155.922 609.392 156.027 609.445 156.144C609.498 156.261 609.525 156.388 609.526 156.516C609.594 158.285 589.8 174.134 584.903 176.106ZM601.227 150.939C598.745 152.741 590.378 163.08 582.624 172.229C582.957 172.754 583.37 173.225 583.848 173.623C592.001 168.406 599.785 162.633 607.145 156.346C605.3 154.409 603.323 152.602 601.227 150.939ZM547.798 75.9132C547.05 62.7173 539.363 56.5956 531.337 55.0311C533.616 63.3975 533.242 74.2807 524.977 75.6751C521.032 76.3213 519.094 74.2807 516.237 71.9C504.027 61.6971 513.89 51.4941 527.664 52.2083C522.529 38.1283 510.659 26.667 494.913 26.2929C494.769 26.2929 494.63 26.2356 494.528 26.1336C494.426 26.0313 494.368 25.893 494.368 25.7487C494.368 25.6045 494.426 25.4659 494.528 25.3639C494.63 25.2618 494.769 25.2046 494.913 25.2046C511.918 24.8645 525.283 37.108 530.555 52.4124C539.636 53.9768 548.648 60.7788 548.886 75.7091C548.9 75.7808 548.899 75.8538 548.884 75.9249C548.869 75.996 548.84 76.0634 548.799 76.124C548.758 76.184 548.706 76.2353 548.644 76.2749C548.584 76.3145 548.515 76.3423 548.444 76.3553C548.372 76.3689 548.299 76.3677 548.228 76.3528C548.157 76.338 548.09 76.3089 548.029 76.2681C547.969 76.2267 547.918 76.1747 547.878 76.1135C547.839 76.0529 547.812 75.9849 547.798 75.9132ZM528.446 54.623C523.379 54.2829 515.829 55.8474 513.754 60.4387C512.564 63.0574 513.754 66.2884 517.971 69.8254C519.117 70.9725 520.422 71.9464 521.848 72.7162C526.95 74.8929 532.596 68.601 528.446 54.623ZM518.72 535.624C522.005 534.743 525.434 534.53 528.804 534.995C532.174 535.46 535.416 536.594 538.341 538.331C541.266 540.065 543.814 542.369 545.835 545.107C547.857 547.842 549.31 550.954 550.111 554.261C551.621 561.131 550.342 568.319 546.553 574.242C542.764 580.168 536.777 584.346 529.909 585.857C523.04 587.367 515.852 586.089 509.928 582.3C504.002 578.51 499.824 572.525 498.314 565.655C497.668 562.341 497.685 558.935 498.363 555.627C499.041 552.32 500.367 549.183 502.263 546.391C504.16 543.6 506.591 541.21 509.415 539.363C512.24 537.514 515.402 536.245 518.72 535.624ZM508.21 563.342C509.575 568.784 512.842 573.559 517.42 576.801C521.999 580.046 527.587 581.546 533.174 581.027C538.302 579.024 542.56 575.274 545.198 570.441C547.835 565.606 548.684 559.998 547.594 554.601C546.321 549.027 543.085 544.096 538.476 540.711C533.867 537.328 528.195 535.715 522.495 536.168C517.315 538.308 513.057 542.205 510.469 547.176C507.881 552.147 507.129 557.872 508.347 563.342H508.21Z" fill="white"/>
<path d="M473.419 545.317C476.38 544.297 479.553 544.05 482.636 544.603C483.914 541.672 485.486 538.881 487.329 536.27C485.119 534.264 479.065 528.686 480.527 526.068C485.732 519.841 491.911 514.502 498.825 510.253C501.712 508.635 504.89 507.606 508.177 507.226C510.354 507.532 515.524 516.001 516.68 517.905C517.428 517.905 520.081 517.055 520.285 516.953C520.285 514.504 520.999 505.662 523.21 504.641C525.682 503.732 528.249 503.102 530.862 502.771C533.276 502.397 555.009 506.376 556.607 509.301C557.661 511.273 555.213 518.721 554.499 520.796C556.333 521.805 558.094 522.942 559.77 524.197C563.171 526.612 562.253 526.51 562.865 526.238C563.605 525.883 564.398 525.654 565.212 525.557C567.929 523.965 571.114 523.364 574.224 523.857C577.353 524.877 584.733 541.678 585.924 545.997C586.313 547.086 586.418 548.256 586.23 549.398C585.414 551.643 579.972 553.445 577.693 554.16C578.323 558.536 578.323 562.979 577.693 567.355C580.686 568.172 586.911 570.008 586.57 573.069C586.23 576.13 578.272 596.332 574.973 597.93C573.166 598.942 571.167 599.563 569.105 599.756C567.044 599.948 564.965 599.71 563.001 599.053C561.895 598.5 560.827 597.877 559.804 597.182C558.444 598.202 557.015 599.121 555.553 600.005C556.607 602.624 558.954 608.473 558.206 611.126C557.832 612.524 556.709 612.963 555.145 613.544C550.826 615.108 527.563 620.686 524.026 620.074C522.699 619.87 521.985 618.472 521.577 617.149C520.821 614.125 520.377 611.04 520.251 607.929C518.504 607.756 516.767 607.496 515.047 607.15C513.997 608.993 512.653 610.662 511.068 612.078C509.334 613.303 507.871 612.691 505.899 611.435C504.946 612.66 503.518 614.36 501.987 614.527C498.144 614.972 482.262 600.005 480.629 596.944C479.269 594.393 484.234 589.836 486.445 587.829C484.054 584.23 482.176 580.316 480.867 576.198C478.414 576.567 475.932 576.706 473.453 576.606C472.331 576.606 471.038 576.198 470.562 575.144C468.488 570.416 469.1 552.493 470.562 547.936C470.766 546.609 472.297 545.725 473.419 545.317ZM472.603 548.446C471.447 552.867 471.073 569.566 472.774 573.885C475.714 574.175 478.681 574.039 481.582 573.477C481.891 573.423 482.21 573.488 482.474 573.658C482.738 573.828 482.93 574.092 483.01 574.396C484.364 578.992 486.467 583.337 489.234 587.251C489.431 587.512 489.52 587.835 489.482 588.161C489.444 588.484 489.281 588.779 489.03 588.986C486.643 590.876 484.616 593.18 483.044 595.788C484.744 598.577 498.042 610.755 501.715 611.775C502.259 611.775 503.756 609.735 504.13 609.191C505.387 607.298 506.522 605.338 507.531 603.304C507.678 603.007 507.931 602.778 508.239 602.661C508.548 602.537 508.89 602.537 509.198 602.661C519.061 606.365 522.801 604.188 522.801 606.637C522.797 610.304 523.394 613.946 524.571 617.421C532.563 616.549 540.433 614.793 548.037 612.184C547.669 608.548 546.657 605.011 545.044 601.739C544.024 599.461 548.105 600.107 555.723 592.353C555.968 592.126 556.29 591.998 556.624 591.998C556.958 591.998 557.28 592.126 557.525 592.353C560.926 595.141 565.348 597.862 566.232 597.42C567.966 596.57 575.959 578.443 576.435 574.77C574.016 573.083 571.27 571.924 568.375 571.369C568.066 571.281 567.8 571.085 567.624 570.816C567.45 570.547 567.377 570.223 567.422 569.906C568.256 565.091 568.256 560.165 567.422 555.35C567.37 555.053 567.433 554.749 567.597 554.497C567.761 554.245 568.015 554.063 568.307 553.99C570.871 553.318 573.339 552.323 575.653 551.031C576.401 550.487 576.333 550.521 576.265 549.942C574.064 542.004 570.533 534.493 565.824 527.734C563.987 527.224 559.022 530.863 557.321 532.155C557.144 532.328 556.906 532.424 556.659 532.424C556.411 532.424 556.172 532.328 555.995 532.155C554.432 530.534 552.75 529.035 550.962 527.666C545.792 523.755 544.398 524.265 544.84 522.905C546.404 519.493 547.282 515.805 547.425 512.055C546.898 511.616 546.299 511.273 545.656 511.035C542.481 509.78 539.219 508.757 535.895 507.974C531.867 506.852 527.726 506.177 523.55 505.968C522.835 506.274 522.189 509.369 522.019 510.321C520.761 517.123 521.611 518.517 520.625 518.619C510.932 519.572 508.959 522.258 508.279 521.068C506.393 517.769 504.195 514.66 501.715 511.783C501.001 511.069 501.035 510.729 498.893 511.953C492.491 516.137 486.758 521.261 481.888 527.156C481.377 528.04 485.799 532.733 489.03 535.488C490.152 536.475 488.554 536.917 485.629 542.494C482.704 548.072 483.385 549.636 481.82 549.296C478.804 548.573 475.7 548.287 472.603 548.446ZM0.583618 264.26C7.71332 261.348 15.183 259.37 22.8198 258.376C28.3975 257.492 34.9645 256.608 40.5081 255.893C35.1685 248.343 19.357 229.23 16.7042 224.57C15.9561 223.312 17.3782 221.544 18.4357 220.489C24.3533 214.163 35.7807 211.783 44.5552 210.422C49.5887 209.606 70.6068 207.021 74.1778 208.722C78.463 210.762 110.16 258.376 111.112 265.62C111.112 266.845 110.704 267.321 109.514 267.763C104.515 269.599 81.9661 272.456 76.9326 273.647C83.7346 285.55 113.969 325.784 116.928 331.463C117.642 332.892 117.2 333.742 116.35 334.014C113.289 335.23 110.14 336.208 106.929 336.939C105.705 337.313 103.018 335.646 99.107 333.266C81.5579 322.723 6.26013 273 0.478455 266.573C0.317688 266.422 0.194031 266.239 0.107483 266.035C0.0270996 265.831 -0.0100098 265.612 0.00238037 265.393C0.00854492 265.174 0.0703735 264.959 0.169312 264.763C0.26825 264.568 0.410461 264.396 0.583618 264.26ZM73.6677 305.072C102.576 324.151 112.337 329.729 112.677 329.967C108.018 322.859 79.0752 283.203 74.1097 273.715C74.025 273.53 73.9793 273.332 73.9793 273.128C73.9793 272.927 74.0275 272.726 74.1153 272.544C74.2031 272.36 74.3305 272.201 74.4894 272.073C74.6453 271.946 74.8295 271.855 75.028 271.81C78.429 270.586 103.188 267.933 109.038 265.858C108.29 259.532 77.4087 211.715 73.6677 209.81C69.9266 207.906 33.6381 212.225 26.833 217.088C30.4071 224.06 50.1328 248.479 53.3298 254.159C53.976 255.315 54.18 256.438 52.9216 256.744C51.6633 257.05 19.6971 260.791 12.722 263.07C21.2245 270.178 64.1449 298.678 73.6677 304.936V305.072ZM291.841 97.1356C291.841 97.4416 291.637 97.8157 291.126 99.7883C290.994 100.216 290.699 100.575 290.305 100.791C289.913 101.006 289.451 101.062 289.018 100.945C288.584 100.819 288.219 100.525 288.003 100.13C287.785 99.7345 287.734 99.2689 287.862 98.836C288.202 97.5097 288.508 96.3873 288.712 95.8432C288.91 95.4697 289.239 95.1834 289.639 95.0405C290.035 94.8971 290.472 94.907 290.863 95.0684C291.254 95.2298 291.572 95.5309 291.75 95.913C291.932 96.2952 291.966 96.7311 291.841 97.1356Z" fill="white"/>
</svg>
